<?xml version="1.0" encoding="utf-8"?>
<!-- Generator: Adobe Illustrator 16.0.3, SVG Export Plug-In . SVG Version: 6.00 Build 0)  -->
<!DOCTYPE svg PUBLIC "-//W3C//DTD SVG 1.1//EN" "http://www.w3.org/Graphics/SVG/1.1/DTD/svg11.dtd">
<svg version="1.1" id="Ebene_1" xmlns="http://www.w3.org/2000/svg" xmlns:xlink="http://www.w3.org/1999/xlink" x="0px" y="0px"
	 width="260px" height="80px" viewBox="0 0 260 80" enable-background="new 0 0 260 80" xml:space="preserve">
<g id="logo">
	<rect id="logo_kasten" fill="#DF691A" width="80" height="80"/>
	<g id="DOKU" display="none">
		<path display="inline" fill="#333333" d="M8,30.187h6.725c1.326,0,2.396,0.18,3.212,0.54s1.491,0.876,2.023,1.549
			c0.533,0.672,0.919,1.455,1.159,2.348c0.24,0.893,0.36,1.838,0.36,2.837c0,1.565-0.178,2.78-0.535,3.643
			c-0.356,0.863-0.851,1.584-1.484,2.168c-0.633,0.582-1.313,0.972-2.039,1.164c-0.992,0.267-1.892,0.4-2.698,0.4H8V30.187z
			 M12.526,33.504v8.003h1.109c0.946,0,1.619-0.104,2.018-0.313c0.399-0.211,0.713-0.576,0.939-1.099
			c0.226-0.523,0.339-1.371,0.339-2.543c0-1.552-0.253-2.614-0.759-3.188c-0.506-0.573-1.345-0.859-2.518-0.859L12.526,33.504
			L12.526,33.504z"/>
		<path display="inline" fill="#333333" d="M23.288,37.521c0-2.392,0.667-4.253,1.999-5.586s3.188-1.999,5.565-1.999
			c2.438,0,4.317,0.654,5.636,1.964c1.319,1.309,1.978,3.142,1.978,5.5c0,1.712-0.288,3.118-0.864,4.211
			c-0.577,1.097-1.409,1.947-2.498,2.56c-1.089,0.606-2.447,0.912-4.072,0.912c-1.652,0-3.02-0.263-4.102-0.789
			c-1.083-0.524-1.96-1.358-2.633-2.498C23.624,40.659,23.288,39.233,23.288,37.521z M27.814,37.542
			c0,1.479,0.275,2.541,0.824,3.188c0.55,0.646,1.297,0.967,2.244,0.967c0.973,0,1.725-0.315,2.258-0.948
			c0.532-0.633,0.799-1.769,0.799-3.407c0-1.379-0.278-2.387-0.834-3.022c-0.556-0.636-1.311-0.955-2.263-0.955
			c-0.913,0-1.646,0.324-2.198,0.969C28.091,34.98,27.814,36.049,27.814,37.542z"/>
		<path display="inline" fill="#333333" d="M40.923,30.187h4.527v5.536l4.741-5.536h6.021l-5.347,5.53l5.586,9.12h-5.574
			l-3.089-6.025l-2.338,2.45v3.575h-4.527V30.187z"/>
		<path display="inline" fill="#333333" d="M67.484,30.187H72v8.728c0,0.866-0.135,1.683-0.404,2.451
			c-0.27,0.771-0.692,1.44-1.269,2.019c-0.576,0.573-1.181,0.979-1.813,1.213c-0.88,0.325-1.936,0.487-3.168,0.487
			c-0.713,0-1.491-0.049-2.333-0.147c-0.844-0.101-1.548-0.299-2.114-0.597c-0.566-0.295-1.083-0.717-1.553-1.262
			c-0.47-0.548-0.791-1.108-0.965-1.688c-0.279-0.932-0.419-1.756-0.419-2.477v-8.728h4.516v8.936c0,0.798,0.223,1.423,0.665,1.873
			c0.442,0.448,1.058,0.673,1.844,0.673c0.779,0,1.391-0.221,1.833-0.664c0.443-0.443,0.665-1.07,0.665-1.882L67.484,30.187
			L67.484,30.187z"/>
	</g>
	<g id="VIS" display="none">
		<path display="inline" fill="#333333" d="M8,47.211h8.007l5.579,17.84l5.508-17.84h7.774L25.664,72h-8.302L8,47.211z"/>
		<path display="inline" fill="#333333" d="M37.675,47.211h7.676V72h-7.676V47.211z"/>
		<path display="inline" fill="#333333" d="M49.511,63.799l7.287-0.457c0.159,1.184,0.479,2.086,0.965,2.705
			c0.788,1.004,1.916,1.506,3.382,1.506c1.093,0,1.936-0.258,2.527-0.77c0.591-0.512,0.888-1.107,0.888-1.783
			c0-0.645-0.281-1.219-0.845-1.725c-0.564-0.508-1.872-0.988-3.924-1.438c-3.359-0.756-5.755-1.76-7.187-3.01
			c-1.442-1.252-2.164-2.849-2.164-4.785c0-1.274,0.369-2.478,1.107-3.608c0.738-1.136,1.85-2.025,3.332-2.674
			c1.481-0.646,3.514-0.972,6.095-0.972c3.168,0,5.583,0.588,7.246,1.769c1.662,1.176,2.651,3.051,2.967,5.621l-7.22,0.424
			c-0.191-1.117-0.595-1.931-1.209-2.437c-0.614-0.509-1.463-0.763-2.545-0.763c-0.891,0-1.561,0.189-2.012,0.566
			c-0.451,0.379-0.677,0.838-0.677,1.379c0,0.396,0.187,0.75,0.559,1.064c0.36,0.328,1.217,0.631,2.57,0.914
			c3.347,0.721,5.746,1.451,7.194,2.189c1.448,0.737,2.503,1.653,3.161,2.748C71.67,61.359,72,62.582,72,63.936
			c0,1.588-0.439,3.053-1.318,4.396c-0.879,1.342-2.108,2.358-3.687,3.054c-1.579,0.693-3.567,1.038-5.968,1.038
			c-4.217,0-7.136-0.812-8.759-2.435C50.644,68.363,49.725,66.301,49.511,63.799z"/>
	</g>
</g>
<text transform="matrix(1 0 0 1 94.2041 44.584)" fill="#F6F6F6" font-family="'Roboto-Light'" font-size="36">API</text>
<text transform="matrix(1 0 0 1 123.5254 61.1035)" fill="#F6F6F6" font-family="'Roboto-Regular'" font-size="18">Documentation</text>
<g id="UH4D">
	<path fill="#FFFFFF" d="M21.946,18.888v10.994c0,1.255-0.281,2.355-0.842,3.301c-0.562,0.945-1.374,1.669-2.435,2.173
		c-1.062,0.504-2.316,0.756-3.765,0.756c-2.185,0-3.882-0.56-5.09-1.68S8,31.781,8,29.836V18.888h3.591V29.29
		c0,1.31,0.263,2.27,0.79,2.882s1.398,0.918,2.615,0.918c1.178,0,2.032-0.308,2.563-0.924c0.531-0.616,0.796-1.583,0.796-2.899
		V18.888H21.946z"/>
	<path fill="#FFFFFF" d="M40.029,35.879h-3.591v-7.333h-6.729v7.333h-3.603V18.888h3.603v6.659h6.729v-6.659h3.591V35.879z"/>
	<path fill="#FFFFFF" d="M55.393,32.358h-2.045v3.521h-3.509v-3.521h-7.252v-2.499l7.449-10.971h3.312v10.681h2.045V32.358z
		 M49.838,29.569v-2.882c0-0.48,0.019-1.178,0.058-2.092c0.039-0.915,0.069-1.445,0.093-1.592h-0.093
		c-0.287,0.635-0.632,1.255-1.035,1.859l-3.114,4.707H49.838z"/>
	<path fill="#FFFFFF" d="M72,27.221c0,2.797-0.796,4.939-2.388,6.427c-1.592,1.487-3.891,2.231-6.897,2.231h-4.812V18.888h5.334
		c2.774,0,4.928,0.732,6.461,2.197C71.233,22.549,72,24.595,72,27.221z M68.258,27.314c0-3.649-1.611-5.474-4.834-5.474h-1.917
		v11.063h1.545C66.522,32.904,68.258,31.041,68.258,27.314z"/>
</g>
<g id="Server">
	<path fill="#FFFFFF" d="M16.455,57.619c0,1.143-0.42,2.048-1.259,2.716c-0.839,0.667-1.956,1.002-3.347,1.002
		c-1.673,0-2.956-0.185-3.849-0.553v-0.955c0.986,0.418,2.244,0.627,3.773,0.627c1.124,0,2.015-0.257,2.673-0.772
		c0.659-0.515,0.988-1.19,0.988-2.027c0-0.518-0.109-0.947-0.328-1.287s-0.574-0.65-1.067-0.932s-1.217-0.583-2.172-0.908
		c-1.398-0.48-2.364-1-2.898-1.56c-0.534-0.559-0.801-1.303-0.801-2.232c0-1.023,0.401-1.859,1.203-2.505
		c0.802-0.646,1.834-0.97,3.095-0.97c1.286,0,2.494,0.244,3.624,0.73l-0.347,0.824c-1.136-0.475-2.223-0.712-3.258-0.712
		c-1.011,0-1.817,0.234-2.416,0.702c-0.599,0.469-0.899,1.105-0.899,1.91c0,0.506,0.092,0.921,0.276,1.246
		c0.184,0.324,0.485,0.616,0.903,0.875c0.418,0.26,1.136,0.569,2.154,0.932c1.067,0.368,1.87,0.726,2.406,1.072
		c0.537,0.347,0.929,0.74,1.175,1.18C16.332,56.463,16.455,56.995,16.455,57.619z"/>
	<path fill="#FFFFFF" d="M26.83,61.149h-7.481V47.46h7.481v0.88h-6.526v5.178h6.161v0.881h-6.161v5.871h6.526V61.149z"/>
	<path fill="#FFFFFF" d="M30.885,55.185v5.965H29.93V47.46h3.258c1.698,0,2.953,0.313,3.764,0.94
		c0.812,0.628,1.217,1.571,1.217,2.833c0,0.917-0.242,1.691-0.726,2.322c-0.484,0.63-1.219,1.083-2.205,1.357l3.717,6.236h-1.143
		l-3.53-5.965H30.885z M30.885,54.36h2.612c1.155,0,2.051-0.257,2.688-0.772c0.637-0.515,0.955-1.275,0.955-2.279
		c0-1.043-0.313-1.801-0.937-2.275c-0.624-0.476-1.642-0.712-3.053-0.712h-2.266V54.36z"/>
	<path fill="#FFFFFF" d="M49.415,47.46h1.04l-5.122,13.689H44.49L39.387,47.46h1.021l3.446,9.316
		c0.524,1.404,0.877,2.46,1.058,3.165c0.125-0.468,0.371-1.195,0.74-2.182L49.415,47.46z"/>
	<path fill="#FFFFFF" d="M59.874,61.149h-7.481V47.46h7.481v0.88h-6.526v5.178h6.161v0.881h-6.161v5.871h6.526V61.149z"/>
	<path fill="#FFFFFF" d="M63.929,55.185v5.965h-0.955V47.46h3.258c1.699,0,2.953,0.313,3.765,0.94
		c0.812,0.628,1.218,1.571,1.218,2.833c0,0.917-0.242,1.691-0.727,2.322c-0.482,0.63-1.219,1.083-2.205,1.357L72,61.149h-1.143
		l-3.53-5.965H63.929z M63.929,54.36h2.612c1.155,0,2.051-0.257,2.688-0.772c0.637-0.515,0.955-1.275,0.955-2.279
		c0-1.043-0.313-1.801-0.937-2.275c-0.624-0.476-1.643-0.712-3.053-0.712h-2.266V54.36z"/>
</g>
</svg>
